<?xml version="1.0" encoding="UTF-8"?>
<svg id="Layer_8" data-name="Layer 8" xmlns="http://www.w3.org/2000/svg" xmlns:xlink="http://www.w3.org/1999/xlink" viewBox="0 0 296.88 298.78">
  <defs>
    <style>
      .cls-1 {
        fill: url(#radial-gradient);
      }
    </style>
    <radialGradient id="radial-gradient" cx="150.94" cy="150.16" fx="150.94" fy="150.16" r="139.07" gradientUnits="userSpaceOnUse">
      <stop offset=".06" stop-color="#fff"/>
      <stop offset=".63" stop-color="#ffcaba"/>
      <stop offset="1" stop-color="#ffb2c3"/>
    </radialGradient>
  </defs>
  <path class="cls-1" d="M288.73,131.55l-45.83,52.59c-3.07,3.52-4.53,8.16-4.03,12.8l7.45,69.36c1.37,12.73-11.46,22.23-23.24,17.21l-64.18-27.34c-4.3-1.83-9.16-1.79-13.42.12l-63.66,28.52c-11.68,5.23-24.68-4.03-23.55-16.78l6.17-69.49c.41-4.65-1.13-9.26-4.27-12.73l-46.8-51.74c-8.59-9.49-3.8-24.72,8.68-27.58l67.99-15.61c4.55-1.04,8.46-3.94,10.79-7.99l34.74-60.5c6.37-11.1,22.34-11.25,28.92-.27l35.85,59.84c2.4,4.01,6.36,6.83,10.93,7.79l68.27,14.35c12.53,2.63,17.6,17.77,9.19,27.42Z"/>
</svg>